<?xml version="1.0" standalone="no"?>
<!DOCTYPE svg PUBLIC "-//W3C//DTD SVG 20010904//EN"
 "http://www.w3.org/TR/2001/REC-SVG-20010904/DTD/svg10.dtd">
<svg version="1.0" xmlns="http://www.w3.org/2000/svg"
 width="700.000000pt" height="700.000000pt" viewBox="0 0 700.000000 700.000000"
 preserveAspectRatio="xMidYMid meet">
<metadata>
Created by potrace 1.11, written by Peter Selinger 2001-2013
</metadata>
<g transform="translate(0.000000,700.000000) scale(0.100000,-0.100000)"
fill="#000000" stroke="none">
<path d="M3455 6936 c-70 -31 -2730 -1567 -2837 -1639 -30 -20 -58 -50 -75
-82 l-28 -50 -3 -1674 c-2 -1673 -2 -1674 18 -1717 14 -28 39 -54 73 -77 66
-45 2728 -1577 2824 -1626 50 -25 146 -29 196 -7 40 16 1138 646 2117 1213
523 304 725 426 753 455 72 78 68 -42 65 1788 l-3 1645 -28 50 c-17 32 -45 62
-75 82 -87 58 -2709 1575 -2821 1633 -47 23 -130 26 -176 6z m705 -910 c917
-527 1773 -1027 1802 -1054 15 -14 37 -46 50 -71 l23 -46 0 -1355 0 -1355 -23
-52 c-13 -28 -33 -60 -45 -71 -23 -21 -2309 -1348 -2360 -1370 -44 -19 -122
-15 -170 9 -22 12 -399 230 -837 484 -437 254 -946 549 -1129 656 -184 107
-352 211 -372 231 -73 71 -69 -13 -69 1468 0 1481 -4 1399 68 1466 20 19 293
184 607 366 584 338 1738 1000 1765 1011 8 4 42 5 75 4 59 -3 72 -10 615 -321z"/>
<path d="M3530 5030 l0 -1140 -395 0 -395 0 -2 459 -3 459 -200 -115 c-440
-253 -478 -278 -502 -321 l-23 -40 0 -840 c0 -488 4 -851 9 -865 7 -17 74 -61
243 -159 336 -195 461 -266 481 -273 16 -7 17 19 17 454 l0 461 390 0 390 0 0
-1126 0 -1126 33 4 c46 5 2223 1264 2249 1301 19 26 20 51 25 482 l6 455 -386
0 -386 0 -3 -217 c-4 -283 1 -271 -168 -371 -69 -41 -215 -126 -325 -189 -110
-64 -215 -124 -232 -135 l-33 -20 0 1331 0 1330 193 -111 c370 -214 506 -298
526 -326 32 -46 40 -105 41 -299 l0 -183 378 0 379 0 6 413 c4 232 3 428 -2
450 -12 48 -32 80 -73 110 -38 28 -2080 1204 -2215 1276 l-23 12 0 -1141z"/>
</g>
</svg>
